HIERARCHY
ROOT Hips
{
	OFFSET 0.000000 0.000000 0.000000 
	CHANNELS 6 Xposition Yposition Zposition Zrotation Yrotation Xrotation
	JOINT LeftUpLeg
	{
		OFFSET 1.363060 -1.794630 0.839290 
		CHANNELS 3 Zrotation Yrotation Xrotation
		JOINT LeftLeg
		{
			OFFSET 2.448110 -6.726130 0.000000 
			CHANNELS 3 Zrotation Yrotation Xrotation
			JOINT LeftFoot
			{
				OFFSET 2.562200 -7.039590 0.000000 
				CHANNELS 3 Zrotation Yrotation Xrotation
				JOINT LeftToeBase
				{
					OFFSET 0.157640 -0.433110 2.322550 
					CHANNELS 3 Zrotation Yrotation Xrotation
					End Site
					{
						OFFSET 0.000000 0.000000 0.000000 
					}
				}
			}
		}
	}
	JOINT RightUpLeg
	{
		OFFSET -1.305520 -1.794630 0.839290 
		CHANNELS 3 Zrotation Yrotation Xrotation
		JOINT RightLeg
		{
			OFFSET -2.542530 -6.985550 0.000000 
			CHANNELS 3 Zrotation Yrotation Xrotation
			JOINT RightFoot
			{
				OFFSET -2.568260 -7.056230 0.000000 
				CHANNELS 3 Zrotation Yrotation Xrotation
				JOINT RightToeBase
				{
					OFFSET -0.164730 -0.452590 2.363150 
					CHANNELS 3 Zrotation Yrotation Xrotation
					End Site
					{
						OFFSET 0.000000 0.000000 0.000000 
					}
				}
			}
		}
	}
	JOINT Spine
	{
		OFFSET 0.028270 2.035590 -0.193380 
		CHANNELS 3 Zrotation Yrotation Xrotation
		JOINT Spine1
		{
			OFFSET 0.056720 2.048850 -0.042750 
			CHANNELS 3 Zrotation Yrotation Xrotation
			JOINT Neck1
			{
				OFFSET -0.054170 1.746240 0.172020 
				CHANNELS 3 Zrotation Yrotation Xrotation
				JOINT Head
				{
					OFFSET 0.104070 1.761360 -0.123970 
					CHANNELS 3 Zrotation Yrotation Xrotation
					End Site
					{
						OFFSET 0.000000 0.000000 0.000000 
					}
				}
			}
			JOINT LeftArm
			{
				OFFSET 3.362410 1.200890 -0.311210 
				CHANNELS 3 Zrotation Yrotation Xrotation
				JOINT LeftForeArm
				{
					OFFSET 4.983000 -0.000000 -0.000000 
					CHANNELS 3 Zrotation Yrotation Xrotation
					JOINT LeftHand
					{
						OFFSET 3.483560 -0.000000 -0.000000 
						CHANNELS 3 Zrotation Yrotation Xrotation
						JOINT LeftHandIndex1
						{
							OFFSET 0.715260 -0.000000 -0.000000 
							CHANNELS 3 Zrotation Yrotation Xrotation
							End Site
							{
								OFFSET 0.000000 0.000000 0.000000 
							}
						}
					}
				}
			}
			JOINT RightArm
			{
				OFFSET -3.136600 1.374050 -0.404650 
				CHANNELS 3 Zrotation Yrotation Xrotation
				JOINT RightForeArm
				{
					OFFSET -5.241900 -0.000000 -0.000000 
					CHANNELS 3 Zrotation Yrotation Xrotation
					JOINT RightHand
					{
						OFFSET -3.444170 -0.000000 -0.000000 
						CHANNELS 3 Zrotation Yrotation Xrotation
						JOINT RightHandIndex1
						{
							OFFSET -0.622530 -0.000000 -0.000000 
							CHANNELS 3 Zrotation Yrotation Xrotation
							End Site
							{
								OFFSET 0.000000 0.000000 0.000000 
							}
						}
					}
				}
			}
		}
	}
}
MOTION
Frames: 10
Frame Time: 0.041667
-11.238002 14.823776 -4.686686 12.086004 -81.244911 10.409402 -24.483167 -13.896650 -69.182693 12.239545 20.989269 68.243337 -2.262781 9.984300 -6.948295 1.162900 6.845900 19.259800 -10.079896 9.385468 -73.778424 -10.595422 -18.555702 59.921028 3.504181 -17.730772 -2.127966 -0.957900 6.232100 -17.459300 6.820977 -1.509588 0.249590 6.944093 -0.766374 -2.844360 8.138720 3.046082 -22.627966 1.979900 -0.223000 -6.364500 -161.085617 -80.826012 104.111754 13.936059 -22.943826 -1.922115 1.168088 -0.689845 -9.760697 -7.125000 0.000000 0.000000 100.837941 62.456626 57.640306 -54.682452 52.512738 -28.919673 0.069916 0.138819 -21.316834 7.125000 0.000000 0.000000 
-11.200024 14.848383 -4.657697 12.064089 -81.522619 10.256640 -24.821904 -13.403234 -69.040603 12.131009 20.921765 67.941842 -2.245657 9.888746 -6.725459 1.080200 6.606100 18.553500 -9.647440 9.090804 -74.208728 -11.525822 -18.980361 62.900864 3.331418 -17.053702 -3.009292 -0.600300 4.959800 -13.793900 6.845927 -1.355838 0.341621 6.927989 -0.696635 -2.775435 8.062065 2.965389 -22.191538 1.942900 -0.226400 -6.180600 -158.694510 -80.811273 101.802533 14.386130 -23.578183 -2.127979 1.162875 -0.681868 -10.346505 -7.125000 0.000000 0.000000 100.522790 62.142461 57.590972 -54.684228 52.478982 -28.899611 0.070381 0.134068 -20.877784 7.125000 0.000000 0.000000 
-11.166990 14.869058 -4.636910 12.000266 -81.831052 10.155190 -25.043038 -12.941508 -68.938762 12.029154 20.862101 67.656698 -2.205162 9.719082 -6.456893 1.081300 6.609400 18.563200 -9.062555 8.780101 -74.606382 -12.469024 -19.356831 65.871662 3.202541 -16.583702 -4.076479 -0.294700 3.490600 -9.647800 6.870496 -1.187686 0.453310 6.964213 -0.624693 -2.687465 7.726235 2.930996 -21.502961 1.765000 -0.202300 -5.888600 -156.575062 -80.759056 99.864498 14.792690 -24.144266 -2.331486 1.149231 -0.676010 -11.269272 -7.125000 0.000000 0.000000 100.139914 61.818840 57.506391 -54.817711 52.483271 -28.987181 0.072167 0.127972 -20.530474 7.125000 0.000000 0.000000 
-11.133731 14.867148 -4.608258 12.357322 -82.041113 9.909522 -25.172560 -12.913612 -69.132200 11.938277 20.836118 67.393387 -2.203759 9.693361 -6.243339 1.137400 6.773000 19.044500 -8.503495 8.204878 -75.294154 -13.421009 -19.666876 68.770166 3.051316 -16.066438 -4.302806 -0.230000 3.086700 -8.520200 6.818290 -1.023822 0.463714 6.763920 -0.547890 -2.594090 7.430906 2.851297 -21.273868 1.606000 -0.234800 -5.811200 -154.685540 -80.554418 98.096503 15.273086 -24.796910 -2.551892 1.155875 -0.672025 -11.486505 -7.125000 0.000000 0.000000 99.787917 61.551337 57.234514 -54.960022 52.491317 -29.081570 0.074663 0.119483 -20.190882 7.125000 0.000000 0.000000 
-11.098450 14.878271 -4.586011 12.594200 -82.281281 9.675722 -25.289756 -12.794444 -69.169642 11.822942 20.791290 67.049741 -2.233919 9.751844 -5.918070 1.215300 6.993000 19.694700 -7.888612 7.700946 -75.697754 -14.326548 -19.916272 71.488404 2.905987 -15.552712 -4.276273 -0.226100 3.060500 -8.447200 6.753565 -0.750550 0.504131 6.590040 -0.418020 -2.458909 7.368839 2.681757 -21.373415 1.567100 -0.325900 -5.875600 -152.153368 -80.116701 97.204725 16.022293 -25.820271 -2.972925 1.089554 -0.674193 -15.249939 -7.125000 0.000000 0.000000 99.473152 61.439374 56.806450 -54.913425 52.447853 -29.023672 0.075303 0.112938 -19.897988 7.125000 0.000000 0.000000 
-11.068225 14.917822 -4.571966 12.750091 -82.606358 9.369107 -25.474525 -12.372656 -68.939684 11.674119 20.710212 66.611065 -2.256811 9.769114 -5.504399 1.361800 7.386300 20.865100 -7.157342 7.367919 -75.696724 -15.179618 -20.117018 74.024251 2.831187 -15.328055 -4.343732 -0.155700 2.542500 -7.007600 6.742440 -0.549900 0.613480 6.672064 -0.330660 -2.279697 7.227803 2.621632 -21.081202 1.481800 -0.342700 -5.759400 -149.879909 -79.948733 95.220556 16.563464 -26.526135 -3.251694 1.097499 -0.660208 -15.879458 -7.125000 0.000000 0.000000 99.397946 61.288545 56.816348 -54.828136 52.419290 -28.946153 0.074035 0.108558 -19.729662 7.125000 0.000000 0.000000 
-11.032045 14.935800 -4.534437 12.639145 -82.854875 9.696776 -25.553399 -12.365712 -69.105802 11.524609 20.665129 66.175988 -2.302773 9.904668 -5.415468 1.366600 7.398700 20.902000 -6.363667 6.792930 -76.230732 -16.026774 -20.271421 76.498220 2.773121 -15.200532 -3.876833 -0.152200 2.514000 -6.928400 6.733233 -0.558031 0.609476 6.511582 -0.337979 -2.081734 7.165528 2.685233 -20.800657 1.442300 -0.296500 -5.648000 -147.977382 -80.084193 92.248889 16.928693 -26.983348 -3.422896 1.095486 -0.678071 -13.598103 -7.125000 0.000000 0.000000 99.575560 61.029721 57.265999 -54.844025 52.447996 -28.956603 0.070305 0.101108 -19.603090 7.125000 0.000000 0.000000 
-10.997999 14.963329 -4.515785 12.406252 -83.319120 9.832591 -25.662369 -11.921811 -68.994929 11.357064 20.583520 65.679090 -2.358928 10.038287 -5.112575 1.352200 7.361400 20.790500 -5.424007 6.479944 -76.335438 -16.835304 -20.395378 78.855102 2.757992 -15.256866 -3.532247 -0.330500 3.694600 -10.219000 6.723147 -0.414940 0.656158 6.562180 -0.268531 -1.941109 7.400349 2.769664 -20.973107 1.557900 -0.257200 -5.758900 -144.981267 -80.150531 90.385445 17.536035 -27.754102 -3.775803 1.079920 -0.645685 -16.738840 -7.125000 0.000000 0.000000 99.805504 60.631111 57.677990 -54.805077 52.454251 -28.929858 0.069244 0.099018 -19.338050 7.125000 0.000000 0.000000 
-10.961931 14.992655 -4.505673 12.274342 -83.730440 9.637631 -25.803659 -11.377238 -68.630841 11.167992 20.478386 65.141470 -2.372069 10.049031 -5.057875 1.315600 7.264900 20.502600 -4.549236 6.149077 -75.953457 -17.587130 -20.477386 81.118104 2.671339 -14.933347 -4.209576 -0.609400 4.996700 -13.899200 6.695931 -0.236124 0.733250 6.616188 -0.182495 -2.005278 7.448393 2.778714 -20.711895 1.566600 -0.233900 -5.679400 -142.653920 -80.131079 88.514939 18.146825 -28.494872 -4.107291 1.041519 -0.653110 -17.710046 -7.125000 0.000000 0.000000 99.917322 60.283740 57.812540 -54.696433 52.427378 -28.841826 0.068705 0.097176 -18.951123 7.125000 0.000000 0.000000 
-10.915414 15.006812 -4.478594 12.253193 -83.926516 9.812655 -25.848826 -11.393241 -68.725049 10.977926 20.412810 64.604831 -2.355279 9.997129 -5.080610 1.523800 7.794300 22.091200 -3.868691 5.501957 -76.084524 -18.315363 -20.517928 83.372604 2.403502 -13.786116 -5.162139 -0.670000 5.234300 -14.578200 6.679552 -0.179957 0.749201 6.464075 -0.156557 -1.945772 7.345995 2.695653 -20.063121 1.497500 -0.239300 -5.388300 -141.306567 -80.096022 87.438204 18.651963 -29.115755 -4.390743 1.027497 -0.651830 -18.383660 -7.125000 0.000000 0.000000 99.941124 60.184243 57.953225 -54.705026 52.441936 -28.853594 0.068827 0.096221 -18.752296 7.125000 0.000000 0.000000 
